<svg version="1.1" xmlns="http://www.w3.org/2000/svg" xmlns:xlink="http://www.w3.org/1999/xlink" width="59.64286" height="59.64286" viewBox="0,0,59.64286,59.64286"><defs><linearGradient x1="240" y1="180" x2="240" y2="210.2381" gradientUnits="userSpaceOnUse" id="color-1"><stop offset="0" stop-color="#ffffff"/><stop offset="1" stop-color="#ffffff" stop-opacity="0"/></linearGradient><linearGradient x1="240" y1="180.83333" x2="240" y2="150.59524" gradientUnits="userSpaceOnUse" id="color-2"><stop offset="0" stop-color="#ffffff"/><stop offset="1" stop-color="#ffffff" stop-opacity="0"/></linearGradient><linearGradient x1="240.41667" y1="180" x2="210.17857" y2="180" gradientUnits="userSpaceOnUse" id="color-3"><stop offset="0" stop-color="#ffffff"/><stop offset="1" stop-color="#ffffff" stop-opacity="0"/></linearGradient><linearGradient x1="239.58333" y1="180" x2="269.82143" y2="180" gradientUnits="userSpaceOnUse" id="color-4"><stop offset="0" stop-color="#ffffff"/><stop offset="1" stop-color="#ffffff" stop-opacity="0"/></linearGradient><linearGradient x1="240.29463" y1="179.70537" x2="218.91307" y2="201.08693" gradientUnits="userSpaceOnUse" id="color-5"><stop offset="0" stop-color="#ffffff"/><stop offset="1" stop-color="#ffffff" stop-opacity="0"/></linearGradient><linearGradient x1="239.70537" y1="180.29463" x2="261.08693" y2="158.91307" gradientUnits="userSpaceOnUse" id="color-6"><stop offset="0" stop-color="#ffffff"/><stop offset="1" stop-color="#ffffff" stop-opacity="0"/></linearGradient><linearGradient x1="239.70537" y1="179.70537" x2="261.08693" y2="201.08694" gradientUnits="userSpaceOnUse" id="color-7"><stop offset="0" stop-color="#ffffff"/><stop offset="1" stop-color="#ffffff" stop-opacity="0"/></linearGradient><linearGradient x1="240.29463" y1="180.29463" x2="218.91306" y2="158.91306" gradientUnits="userSpaceOnUse" id="color-8"><stop offset="0" stop-color="#ffffff"/><stop offset="1" stop-color="#ffffff" stop-opacity="0"/></linearGradient></defs><g transform="translate(-210.17857,-150.59524)"><g data-paper-data="{&quot;isPaintingLayer&quot;:true}" fill-rule="nonzero" stroke="none" stroke-width="0" stroke-linecap="butt" stroke-linejoin="miter" stroke-miterlimit="10" stroke-dasharray="" stroke-dashoffset="0" style="mix-blend-mode: normal"><g><path d="M233.80952,210.2381l6.22329,-30.23809l6.15767,30.23809z" fill="url(#color-1)"/><path d="M246.19048,150.59524l-6.15767,30.23809l-6.22329,-30.23809z" data-paper-data="{&quot;index&quot;:null}" fill="url(#color-2)"/></g><g><path d="M210.17857,173.80952l30.23809,6.22329l-30.23809,6.15767z" fill="url(#color-3)"/><path d="M269.82143,186.19048l-30.23809,-6.15767l30.2381,-6.22329z" data-paper-data="{&quot;index&quot;:null}" fill="url(#color-4)"/></g><g><path d="M214.53574,196.7096l25.78209,-16.98103l-17.02743,25.73569z" fill="url(#color-5)"/><path d="M265.46426,163.2904l-25.73569,17.02743l16.98103,-25.78209z" data-paper-data="{&quot;index&quot;:null}" fill="url(#color-6)"/></g><g data-paper-data="{&quot;index&quot;:null}"><path d="M256.7096,205.46427l-17.02743,-25.73569l25.78209,16.98103z" fill="url(#color-7)"/><path d="M223.29039,154.53573l16.98104,25.7821l-25.73569,-17.02743z" data-paper-data="{&quot;index&quot;:null}" fill="url(#color-8)"/></g></g></g></svg>